<svg width="168" height="40" viewBox="0 0 168 40" fill="none" xmlns="http://www.w3.org/2000/svg">
<path fill-rule="evenodd" clip-rule="evenodd" d="M24.0002 2.3091C21.525 0.880039 18.4754 0.880039 16.0002 2.3091L6.67969 7.6903C4.20448 9.11936 2.67969 11.7604 2.67969 14.6185V25.3809C2.67969 28.239 4.20448 30.88 6.67969 32.3091L16.0002 37.6903C18.4754 39.1194 21.525 39.1194 24.0002 37.6903L33.3207 32.3091C35.7959 30.88 37.3207 28.239 37.3207 25.3809V14.6185C37.3207 11.7604 35.7959 9.11936 33.3207 7.6903L24.0002 2.3091ZM20.0002 29.9997C25.523 29.9997 30.0002 25.5225 30.0002 19.9997C30.0002 14.4769 25.523 9.9997 20.0002 9.9997C14.4773 9.9997 10.0002 14.4769 10.0002 19.9997C10.0002 25.5225 14.4773 29.9997 20.0002 29.9997Z" fill="#010101"/>
<circle cx="19.9991" cy="20.0001" r="4.44444" fill="#010101"/>
<path d="M69.4205 18.0909H64.6136C64.5795 17.6932 64.4886 17.3324 64.3409 17.0085C64.1989 16.6847 64 16.4062 63.7443 16.1733C63.4943 15.9347 63.1903 15.7528 62.8324 15.6278C62.4744 15.4972 62.0682 15.4318 61.6136 15.4318C60.8182 15.4318 60.1449 15.625 59.5938 16.0114C59.0483 16.3977 58.6335 16.9517 58.3494 17.6733C58.071 18.3949 57.9318 19.2614 57.9318 20.2727C57.9318 21.3409 58.0739 22.2358 58.358 22.9574C58.6477 23.6733 59.0653 24.2131 59.6108 24.5767C60.1563 24.9347 60.8125 25.1136 61.5795 25.1136C62.017 25.1136 62.4091 25.0597 62.7557 24.9517C63.1023 24.8381 63.4034 24.6761 63.6591 24.4659C63.9148 24.2557 64.1222 24.0028 64.2812 23.7074C64.446 23.4062 64.5568 23.0682 64.6136 22.6932L69.4205 22.7273C69.3636 23.4659 69.1563 24.2187 68.7983 24.9858C68.4403 25.7472 67.9318 26.4517 67.2727 27.0994C66.6193 27.7415 65.8097 28.2585 64.8438 28.6506C63.8778 29.0426 62.7557 29.2386 61.4773 29.2386C59.875 29.2386 58.4375 28.8949 57.1648 28.2074C55.8977 27.5199 54.8949 26.5085 54.1562 25.1733C53.4233 23.8381 53.0568 22.2045 53.0568 20.2727C53.0568 18.3295 53.4318 16.6932 54.1818 15.3636C54.9318 14.0284 55.9432 13.0199 57.2159 12.3381C58.4886 11.6506 59.9091 11.3068 61.4773 11.3068C62.5795 11.3068 63.5938 11.4574 64.5199 11.7585C65.446 12.0597 66.2585 12.5 66.9574 13.0795C67.6563 13.6534 68.2188 14.3608 68.6449 15.2017C69.071 16.0426 69.3295 17.0057 69.4205 18.0909ZM71.5703 29V11.5455H79.1044C80.3999 11.5455 81.5334 11.7812 82.505 12.2528C83.4766 12.7244 84.2322 13.4034 84.772 14.2898C85.3118 15.1761 85.5817 16.2386 85.5817 17.4773C85.5817 18.7273 85.3033 19.7812 84.7464 20.6392C84.1953 21.4972 83.4197 22.1449 82.4197 22.5824C81.4254 23.0199 80.2635 23.2386 78.9339 23.2386H74.4339V19.5568H77.9794C78.5362 19.5568 79.0107 19.4886 79.4027 19.3523C79.8004 19.2102 80.1044 18.9858 80.3146 18.679C80.5305 18.3722 80.6385 17.9716 80.6385 17.4773C80.6385 16.9773 80.5305 16.571 80.3146 16.2585C80.1044 15.9403 79.8004 15.7074 79.4027 15.5597C79.0107 15.4062 78.5362 15.3295 77.9794 15.3295H76.3089V29H71.5703ZM81.7976 20.9886L86.1612 29H81.0135L76.7521 20.9886H81.7976ZM86.0653 11.5455H91.3494L94.7585 18.6364H94.8949L98.304 11.5455H103.588L97.179 23.5114V29H92.4744V23.5114L86.0653 11.5455ZM105.133 29V11.5455H112.667C113.962 11.5455 115.096 11.8011 116.067 12.3125C117.039 12.8239 117.795 13.5426 118.335 14.4688C118.874 15.3949 119.144 16.4773 119.144 17.7159C119.144 18.9659 118.866 20.0483 118.309 20.9631C117.758 21.8778 116.982 22.5824 115.982 23.0767C114.988 23.571 113.826 23.8182 112.496 23.8182H107.996V20.1364H111.542C112.099 20.1364 112.573 20.0398 112.965 19.8466C113.363 19.6477 113.667 19.3665 113.877 19.0028C114.093 18.6392 114.201 18.2102 114.201 17.7159C114.201 17.2159 114.093 16.7898 113.877 16.4375C113.667 16.0795 113.363 15.8068 112.965 15.6193C112.573 15.4261 112.099 15.3295 111.542 15.3295H109.871V29H105.133ZM120.406 15.3636V11.5455H135.576V15.3636H130.326V29H125.656V15.3636H120.406ZM137.359 29V11.5455H149.939V15.3636H142.098V18.3636H149.291V22.1818H142.098V25.1818H149.905V29H137.359ZM152.289 29V11.5455H159.823C161.119 11.5455 162.252 11.7812 163.224 12.2528C164.195 12.7244 164.951 13.4034 165.491 14.2898C166.031 15.1761 166.3 16.2386 166.3 17.4773C166.3 18.7273 166.022 19.7812 165.465 20.6392C164.914 21.4972 164.138 22.1449 163.138 22.5824C162.144 23.0199 160.982 23.2386 159.653 23.2386H155.153V19.5568H158.698C159.255 19.5568 159.729 19.4886 160.121 19.3523C160.519 19.2102 160.823 18.9858 161.033 18.679C161.249 18.3722 161.357 17.9716 161.357 17.4773C161.357 16.9773 161.249 16.571 161.033 16.2585C160.823 15.9403 160.519 15.7074 160.121 15.5597C159.729 15.4062 159.255 15.3295 158.698 15.3295H157.028V29H152.289ZM162.516 20.9886L166.88 29H161.732L157.471 20.9886H162.516Z" fill="#010101"/>
</svg>
